# xmcd
#
# Track frame offsets: 
#        150
#        20510
#        35812
#        55427
#        81995
#        103740
#        113757
#        131255
#        146077
#        161422
#        174527
#        198000
#
# Disc length: 2821 seconds
#
# Revision: 1
# Processed by: cddbd v1.5.2PL0 Copyright (c) Steve Scherf et al.
# Submitted via: ExactAudioCopyFreeDBPlugin 1.0
#
DISCID=a20b030c
DTITLE=The Blue Shadows - Lucky To Me
DYEAR=1900
DGENRE=Country
TTITLE0=Don't Expect A Reply
TTITLE1=Lucky To Me
TTITLE2=(Born To Be) Riding Only Down
TTITLE3=Time's Out Of Place
TTITLE4=Let The Cowboys Ride
TTITLE5=I Know
TTITLE6=Maybe In Time
TTITLE7=Tell Me
TTITLE8=Why Oh Why
TTITLE9=The Trouble With Trouble
TTITLE10=Look At It Rain
TTITLE11=Field Of Gold
EXTD=
EXTT0=
EXTT1=
EXTT2=
EXTT3=
EXTT4=
EXTT5=
EXTT6=
EXTT7=
EXTT8=
EXTT9=
EXTT10=
EXTT11=
PLAYORDER=
